# xmcd CD database file
#
# Track frame offsets:
#	150
#	56926
#	144159
#	225843
#
# Disc length: 3825 seconds
#
# Revision: 0
# Processed by: cddbd v1.5.2PL0 Copyright (c) Steve Scherf et al.
# Submitted via: CDex 1.70beta2
#
DISCID=2a0eef04
DTITLE=Wadada Leo Smith - Spiritual Dimensions [CD2]
DYEAR=2009
DGENRE=Jazz
TTITLE0=South Central LA Kulture
TTITLE1=Angela Davis
TTITLE2=Organic
TTITLE3=Joy, Spiritual Fire, Joy
EXTD=YEAR: 2009
EXTT0=
EXTT1=
EXTT2=
EXTT3=
PLAYORDER=
